# xmcd
#
# Track frame offsets: 
#        150
#        13970
#        30586
#        47818
#        68433
#        84177
#        101478
#        122087
#        136600
#        154505
#        167178
#        183254
#        193913
#        212625
#        224714
#        236869
#        264274
#        276341
#        292766
#        311852
#
# Disc length: 4648 seconds
#
# Revision: 0
# Processed by: cddbd v1.5.2PL0 Copyright (c) Steve Scherf et al.
# Submitted via: ExactAudioCopy v0.99pb4
#
DISCID=1f122614
DTITLE=Various Artist - 1000x Soul CD1
DYEAR=2008
DGENRE=Soul
TTITLE0=Alian Clark - Blow Me Away
TTITLE1=Duffy - Merci
TTITLE2=Jamie Lidell - Another Day
TTITLE3=Marvin Gaye - I Want You
TTITLE4=Barry White - You See The Trouble
TTITLE5=Alicia Keys - If I Ain't Got You
TTITLE6=Isaac Hayes - Walk On By
TTITLE7=Sam Cooke - A Change Is Gonna Come
TTITLE8=Al Green - Just For Me
TTITLE9=Diana Ross and The Supremes - Reflections
TTITLE10=Buckshot Lefonque - Another Day
TTITLE11=Sly and The Family Stone - Everyday People
TTITLE12=Incognito - Don't You Worry 'Bout A Thing
TTITLE13=Linda Lyndell - What A Man
TTITLE14=Four Tops - I Can't Help Myself
TTITLE15=Lionel Richie - Do It To Me
TTITLE16=The Impressions - People Get Ready
TTITLE17=Earth, Wind and Fire - After The Love
TTITLE18=Robin Thicke - Lost Without You
TTITLE19=Betty Wright - Tonight Is The Night
EXTD=
EXTT0=
EXTT1=
EXTT2=
EXTT3=
EXTT4=
EXTT5=
EXTT6=
EXTT7=
EXTT8=
EXTT9=
EXTT10=
EXTT11=
EXTT12=
EXTT13=
EXTT14=
EXTT15=
EXTT16=
EXTT17=
EXTT18=
EXTT19=
PLAYORDER=
